#!OML:ASF H:\Punching\Project 1\Capture day 1\Session 1\female.ASF
:FULLY-SPECIFIED
:DEGREES
835
root -1.39334 14.6825 5.76358 15.3606 -9.30898 -2.45889
lowerback -0.164475 -2.10844 -3.81921
upperback -3.93571 -2.93143 -0.722337
thorax -3.81368 -1.35276 1.4795
lowerneck -3.03557 9.41607 20.9431
upperneck 30.0737 12.4923 -7.10083
head 12.3498 7.18985 -4.63441
rclavicle -3.28989e-014 -2.70347e-014
rhumerus 13.4202 33.5263 -82.4591
rradius 129.477
rwrist -43.2287
rhand -17.1039 -6.50204
rfingers 7.12502
rthumb 9.13504 -36.2842
lclavicle -3.28989e-014 -2.70347e-014
lhumerus 17.6912 1.68995 59.5531
lradius 116.247
lwrist 31.1673
lhand -11.2249 33.042
lfingers 7.12502
lthumb 14.8038 62.4933
rfemur -52.123 13.4933 11.4409
rtibia 49.7025
rfoot -13.7748 1.18652
rtoes -4.93406
lfemur 18.9115 10.1736 -3.72234
ltibia -2.54444e-014
lfoot -15.8926 -2.6334
ltoes -30.4599
836
root -1.40066 14.7084 5.76599 15.249 -7.14136 -2.09588
lowerback 0.0620798 -1.88908 -3.57856
upperback -3.86728 -2.63641 -0.620392
thorax -3.89053 -1.21003 1.44996
lowerneck -3.69984 8.74624 19.8864
upperneck 30.2378 11.4567 -6.7403
head 12.2501 6.64863 -4.47241
rclavicle -4.27387e-015 2.38542e-015
rhumerus 13.3946 32.764 -82.1242
rradius 130.004
rwrist -43.6398
rhand -17.1633 -6.58981
rfingers 7.12502
rthumb 9.07776 -36.3745
lclavicle -4.27387e-015 2.38542e-015
lhumerus 16.9402 -0.483783 61.0977
lradius 119.931
lwrist 31.8165
lhand -11.3324 32.33
lfingers 7.12502
lthumb 14.7002 61.7888
rfemur -51.4663 12.4716 11.1537
rtibia 49.8066
rfoot -14.0828 0.11418
rtoes -5.17453
lfemur 17.9664 8.22754 -3.81279
ltibia 2.22639e-014
lfoot -15.5002 -2.26545
ltoes -30.7011
837
root -1.40867 14.7337 5.76969 15.147 -4.89279 -1.77336
lowerback 0.287341 -1.66361 -3.28932
upperback -3.81133 -2.33058 -0.500614
thorax -3.98005 -1.06308 1.40948
lowerneck -4.31407 8.03492 18.7965
upperneck 30.3954 10.3774 -6.33138
head 12.1446 6.09067 -4.28851
rclavicle 1.39149e-014 1.90833e-014
rhumerus 13.3629 31.9936 -81.7553
rradius 130.595
rwrist -43.9994
rhand -17.1691 -6.67877
rfingers 7.12502
rthumb 9.07214 -36.4637
lclavicle 1.39149e-014 1.90833e-014
lhumerus 16.1773 -2.82478 62.6432
lradius 123.317
lwrist 32.2218
lhand -11.5112 31.5623
lfingers 7.12502
lthumb 14.528 61.0337
rfemur -50.7383 11.366 10.9516
rtibia 49.8933
rfoot -14.4003 -0.932515
rtoes -5.45123
lfemur 17.0125 6.20788 -3.82527
ltibia -9.54166e-015
lfoot -15.1089 -1.85408
ltoes -30.9434
838
root -1.41734 14.7584 5.77453 15.064 -2.57429 -1.49333
lowerback 0.500119 -1.43017 -2.94781
upperback -3.76429 -2.01067 -0.373112
thorax -4.07226 -0.910875 1.34488
lowerneck -4.89787 7.28461 17.7069
upperneck 30.5389 9.25138 -5.88605
head 12.0399 5.51635 -4.09185
rclavicle 2.05742e-014 -7.15625e-015
rhumerus 13.3243 31.2019 -81.3598
rradius 131.244
rwrist -44.3005
rhand -17.1582 -6.77358
rfingers 7.12502
rthumb 9.08267 -36.558
lclavicle 2.05742e-014 -7.15625e-015
lhumerus 15.4478 -5.32208 64.1747
lradius 126.402
lwrist 32.4295
lhand -11.7532 30.8192
lfingers 7.12502
lthumb 14.2948 60.3071
rfemur -49.9581 10.179 10.8324
rtibia 49.9592
rfoot -14.7259 -1.95102
rtoes -5.76291
lfemur 16.0387 4.12858 -3.7554
ltibia -2.54444e-014
lfoot -14.7168 -1.41253
ltoes -31.1422
839
root -1.42662 14.7823 5.78041 15.0054 -0.204893 -1.25896
lowerback 0.691065 -1.18688 -2.55144
upperback -3.72969 -1.67381 -0.244254
thorax -4.16511 -0.75227 1.24775
lowerneck -5.43822 6.49811 16.6344
upperneck 30.654 8.08111 -5.40571
head 11.9312 4.92845 -3.88556
rclavicle 4.96962e-015 -6.36111e-015
rhumerus 13.267 30.3769 -80.9445
rradius 131.94
rwrist -44.5492
rhand -17.1363 -6.85131
rfingers 7.12502
rthumb 9.10381 -36.6348
lclavicle 4.96962e-015 -6.36111e-015
lhumerus 14.776 -7.9536 65.6753
lradius 129.187
lwrist 32.4792
lhand -12.0356 30.163
lfingers 7.12502
lthumb 14.0227 59.6699
rfemur -49.1448 8.92775 10.7904
rtibia 50.0012
rfoot -15.0513 -2.93855
rtoes -6.09226
lfemur 15.0411 2.01071 -3.59796
ltibia 3.18055e-015
lfoot -14.3205 -0.956401
ltoes -31.2872
840
root -1.43613 14.8053 5.78747 14.9652 2.20599 -1.06138
lowerback 0.863841 -0.931813 -2.10663
upperback -3.694 -1.31761 -0.122116
thorax -4.24558 -0.586331 1.11318
lowerneck -5.98425 5.68548 15.5995
upperneck 30.7437 6.87026 -4.89903
head 11.8336 4.32926 -3.67487
rclavicle 6.90777e-015 -3.57812e-015
rhumerus 13.2059 29.4887 -80.4993
rradius 132.673
rwrist -44.7741
rhand -17.1346 -6.91524
rfingers 7.12502
rthumb 9.10549 -36.6987
lclavicle 6.90777e-015 -3.57812e-015
lhumerus 14.2065 -10.6837 67.1305
lradius 131.67
lwrist 32.4132
lhand -12.3346 29.6301
lfingers 7.12502
lthumb 13.7346 59.1568
rfemur -48.3006 7.61208 10.8135
rtibia 50.0184
rfoot -15.3801 -3.88516
rtoes -6.40742
lfemur 14.0211 -0.138434 -3.36072
ltibia 1.59028e-014
lfoot -13.9199 -0.497526
ltoes -31.3616
841
root -1.44573 14.8272 5.79536 14.9487 4.64065 -0.901945
lowerback 1.00478 -0.669682 -1.61266
upperback -3.67954 -0.948225 -0.00238744
thorax -4.32771 -0.415766 0.945648
lowerneck -6.42961 4.84451 14.5947
upperneck 30.7729 5.63525 -4.37273
head 11.714 3.72527 -3.46158
rclavicle 7.60351e-015 0
rhumerus 13.0935 28.5424 -80.0423
rradius 133.427
rwrist -44.9981
rhand -17.1599 -6.97836
rfingers 7.12502
rthumb 9.08102 -36.7629
lclavicle 7.60351e-015 0
lhumerus 13.6839 -13.4614 68.5387
lradius 133.867
lwrist 32.2802
lhand -12.6296 29.2126
lfingers 7.12502
lthumb 13.4503 58.7583
rfemur -47.4475 6.24573 10.8954
rtibia 50.0117
rfoot -15.7049 -4.78268
rtoes -6.69115
lfemur 12.972 -2.29862 -3.04105
ltibia 1.27222e-014
lfoot -13.5162 -0.0432987
ltoes -31.3599
842
root -1.45569 14.8482 5.80322 14.9601 7.09821 -0.772461
lowerback 1.11674 -0.405186 -1.07765
upperback -3.68153 -0.572438 0.111167
thorax -4.40678 -0.243916 0.746434
lowerneck -6.80482 3.98637 13.6158
upperneck 30.745 4.38306 -3.81748
head 11.5811 3.11926 -3.23983
rclavicle -1.43373e-014 -1.23246e-014
rhumerus 12.9545 27.5197 -79.5609
rradius 134.187
rwrist -45.2347
rhand -17.205 -7.01916
rfingers 7.12502
rthumb 9.03753 -36.8056
lclavicle -1.43373e-014 -1.23246e-014
lhumerus 13.219 -16.2287 69.88
lradius 135.788
lwrist 32.1242
lhand -12.9104 28.8817
lfingers 7.12502
lthumb 13.1795 58.4451
rfemur -46.6016 4.82992 11.0248
rtibia 49.9841
rfoot -16.0254 -5.63205
rtoes -6.93183
lfemur 11.8762 -4.46728 -2.64185
ltibia -3.81667e-014
lfoot -13.1026 0.41034
ltoes -31.3024
843
root -1.46602 14.8681 5.81106 14.9925 9.57083 -0.666107
lowerback 1.19542 -0.137922 -0.51024
upperback -3.6966 -0.190305 0.215232
thorax -4.47587 -0.0706777 0.51736
lowerneck -7.08528 3.10836 12.6699
upperneck 30.6405 3.11226 -3.23854
head 11.4232 2.50991 -3.01323
rclavicle 1.4387e-014 -2.72335e-014
rhumerus 12.7842 26.4095 -79.0585
rradius 134.94
rwrist -45.4944
rhand -17.2603 -7.03951
rfingers 7.12502
rthumb 8.9842 -36.8282
lclavicle 1.4387e-014 -2.72335e-014
lhumerus 12.8309 -18.9253 71.1323
lradius 137.449
lwrist 32.0055
lhand -13.1481 28.6282
lfingers 7.12502
lthumb 12.9504 58.2063
rfemur -45.7651 3.37404 11.1914
rtibia 49.9406
rfoot -16.3443 -6.43591
rtoes -7.12493
lfemur 10.7381 -6.63833 -2.16827
ltibia -4.45278e-014
lfoot -12.6892 0.875548
ltoes -31.217
844
root -1.47714 14.8867 5.81804 15.047 12.0445 -0.581461
lowerback 1.2483 0.12622 0.0761024
upperback -3.72543 0.189629 0.315966
thorax -4.53905 0.1003 0.27332
lowerneck -7.28366 2.22236 11.7491
upperneck 30.4678 1.83932 -2.64012
head 11.2481 1.90265 -2.78006
rclavicle 1.40578e-014 -1.23743e-014
rhumerus 12.6137 25.2206 -78.519
rradius 135.66
rwrist -45.7421
rhand -17.3264 -7.0446
rfingers 7.12502
rthumb 8.92042 -36.836
lclavicle 1.40578e-014 -1.23743e-014
lhumerus 12.5282 -21.4877 72.2749
lradius 138.861
lwrist 31.9528
lhand -13.3604 28.4099
lfingers 7.12502
lthumb 12.7458 58.0009
rfemur -44.9568 1.89859 11.3879
rtibia 49.8878
rfoot -16.6557 -7.20488
rtoes -7.26822
lfemur 7.0427 -8.7571 -1.84709
ltibia 5.07129
lfoot -14.8042 1.36773
ltoes -31.1068
845
root -1.48903 14.9035 5.8241 15.1081 14.4978 -0.51791
lowerback 1.28638 0.387164 0.671057
upperback -3.76285 0.566636 0.413958
thorax -4.59698 0.269014 0.0211809
lowerneck -7.40585 1.33475 10.8481
upperneck 30.233 0.570939 -2.01711
head 11.0603 1.29997 -2.53704
rclavicle -9.46712e-015 3.18055e-015
rhumerus 12.4468 23.9807 -77.9459
rradius 136.342
rwrist -45.9532
rhand -17.4099 -7.06769
rfingers 7.12502
rthumb 8.83981 -36.8625
lclavicle -9.46712e-015 3.18055e-015
lhumerus 12.3228 -23.8812 73.2912
lradius 140.049
lwrist 31.9788
lhand -13.545 28.2404
lfingers 7.12502
lthumb 12.5678 57.8424
rfemur -44.1748 0.431228 11.6086
rtibia 49.8333
rfoot -16.9584 -7.95298
rtoes -7.38631
lfemur 4.61254 -10.8835 -1.22466
ltibia 7.51034
lfoot -15.6105 1.86206
ltoes -30.9811
846
root -1.50187 14.9182 5.82923 15.1606 16.9152 -0.473608
lowerback 1.32206 0.636106 1.25488
upperback -3.80427 0.928536 0.519108
thorax -4.65241 0.430312 -0.216895
lowerneck -7.46104 0.459194 9.95881
upperneck 29.9538 -0.67117 -1.38046
head 10.8697 0.709561 -2.28507
rclavicle 5.80203e-014 2.52457e-014
rhumerus 12.305 22.7262 -77.3318
rradius 136.977
rwrist -46.1341
rhand -17.5251 -7.12753
rfingers 7.12502
rthumb 8.72859 -36.9271
lclavicle 5.80203e-014 2.52457e-014
lhumerus 12.2047 -26.0814 74.1848
lradius 141.036
lwrist 32.0534
lhand -13.7239 28.1464
lfingers 7.12502
lthumb 12.3953 57.7589
rfemur -43.415 -1.00965 11.8495
rtibia 49.7849
rfoot -17.2515 -8.6942
rtoes -7.48303
lfemur 2.42018 -12.9815 -0.462096
ltibia 9.42069
lfoot -16.1641 2.36816
ltoes -30.8192
847
root -1.51572 14.9304 5.83317 15.193 19.2689 -0.454618
lowerback 1.36429 0.87404 1.81739
upperback -3.84832 1.27668 0.636719
thorax -4.71003 0.585344 -0.429769
lowerneck -7.44797 -0.395303 9.07627
upperneck 29.6384 -1.87405 -0.731901
head 10.6793 0.136463 -2.02319
rclavicle -1.11319e-014 -3.97569e-015
rhumerus 12.1899 21.4723 -76.6811
rradius 137.566
rwrist -46.3252
rhand -17.6263 -7.21679
rfingers 7.12502
rthumb 8.63094 -37.0204
lclavicle -1.11319e-014 -3.97569e-015
lhumerus 12.1726 -28.0812 74.9697
lradius 141.831
lwrist 32.1499
lhand -13.9015 28.1477
lfingers 7.12502
lthumb 12.2241 57.7705
rfemur -42.6835 -2.39035 12.1102
rtibia 49.7482
rfoot -17.5276 -9.44268
rtoes -7.56397
lfemur 0.360076 -15.0136 0.409736
ltibia 11.0491
lfoot -16.5941 2.87551
ltoes -30.628
848
root -1.53017 14.9398 5.83607 15.1875 21.529 -0.455669
lowerback 1.42953 1.09587 2.33652
upperback -3.87918 1.60403 0.776246
thorax -4.76454 0.731747 -0.595113
lowerneck -7.41267 -1.20925 8.19484
upperneck 29.3101 -3.01133 -0.0905271
head 10.5065 -0.409345 -1.75598
rclavicle 6.81831e-014 2.06736e-014
rhumerus 12.1356 20.2398 -75.9882
rradius 138.1
rwrist -46.5685
rhand -17.6891 -7.31262
rfingers 7.12502
rthumb 8.57039 -37.1187
lclavicle 6.81831e-014 2.06736e-014
lhumerus 12.2193 -29.861 75.664
lradius 142.457
lwrist 32.2311
lhand -14.0834 28.2489
lfingers 7.12502
lthumb 12.0487 57.8821
rfemur -41.9723 -3.69064 12.3795
rtibia 49.7291
rfoot -17.7885 -10.2022
rtoes -7.62711
lfemur -1.56235 -15.3834 1.30292
ltibia 12.4823
lfoot -16.9303 1.84126
ltoes -30.3941
